<?xml version="1.0" encoding="utf-8"?>
<!-- Generator: Adobe Illustrator 21.1.0, SVG Export Plug-In . SVG Version: 6.00 Build 0)  -->
<svg version="1.1" id="Слой_1" xmlns="http://www.w3.org/2000/svg" xmlns:xlink="http://www.w3.org/1999/xlink" x="0px" y="0px"
	 viewBox="0 0 42 37" style="enable-background:new 0 0 42 37;" xml:space="preserve">
<style type="text/css">
	.st0{clip-path:url(#SVGID_2_);}
	.st1{clip-path:url(#SVGID_4_);fill:#eff3f6;}
	.st2{clip-path:url(#SVGID_6_);}
	.st3{clip-path:url(#SVGID_8_);fill:#eff3f6;}
	.st4{clip-path:url(#SVGID_10_);}
	.st5{clip-path:url(#SVGID_12_);fill:#eff3f6;}
</style>
<g>
	<defs>
		<path id="SVGID_1_" d="M39.9,34.7c-0.2,0.3-0.7,0.5-1.4,0.5H3.5c-0.7,0-1.2-0.2-1.4-0.5c-0.2-0.3-0.1-0.9,0.2-1.5L19.8,3
			c0.4-0.6,0.8-1,1.2-1c0.4,0,0.8,0.4,1.2,1l17.5,30.2C40,33.8,40.1,34.4,39.9,34.7z M41.4,32.2L23.9,2c-0.7-1.2-1.8-2-2.9-2
			c-1.1,0-2.2,0.7-2.9,2L0.6,32.2c-0.7,1.2-0.8,2.5-0.2,3.5c0.6,1,1.7,1.5,3.2,1.5h34.9c1.4,0,2.6-0.6,3.2-1.5
			C42.2,34.7,42.1,33.4,41.4,32.2z"/>
	</defs>
	<clipPath id="SVGID_2_">
		<use xlink:href="#SVGID_1_"  style="overflow:visible;"/>
	</clipPath>
	<g class="st0">
		<defs>
			<rect id="SVGID_3_" x="-1018.4" y="-1282.8" width="1800" height="2000"/>
		</defs>
		<clipPath id="SVGID_4_">
			<use xlink:href="#SVGID_3_"  style="overflow:visible;"/>
		</clipPath>
		<rect x="-5" y="-5" class="st1" width="52" height="47.2"/>
	</g>
</g>
<g>
	<defs>
		<path id="SVGID_5_" d="M21,10.2c-0.6,0-1,0.4-1,1v16c0,0.6,0.4,1,1,1s1-0.4,1-1v-16C22,10.7,21.6,10.2,21,10.2"/>
	</defs>
	<clipPath id="SVGID_6_">
		<use xlink:href="#SVGID_5_"  style="overflow:visible;"/>
	</clipPath>
	<g class="st2">
		<defs>
			<rect id="SVGID_7_" x="-1018.4" y="-1282.8" width="1800" height="2000"/>
		</defs>
		<clipPath id="SVGID_8_">
			<use xlink:href="#SVGID_7_"  style="overflow:visible;"/>
		</clipPath>
		<rect x="15" y="5.2" class="st3" width="12" height="28"/>
	</g>
</g>
<g>
	<defs>
		<path id="SVGID_9_" d="M21,30.2c-0.6,0-1,0.4-1,1c0,0.6,0.4,1,1,1c0.6,0,1-0.4,1-1C22,30.7,21.6,30.2,21,30.2"/>
	</defs>
	<clipPath id="SVGID_10_">
		<use xlink:href="#SVGID_9_"  style="overflow:visible;"/>
	</clipPath>
	<g class="st4">
		<defs>
			<rect id="SVGID_11_" x="-1018.4" y="-1282.8" width="1800" height="2000"/>
		</defs>
		<clipPath id="SVGID_12_">
			<use xlink:href="#SVGID_11_"  style="overflow:visible;"/>
		</clipPath>
		<rect x="15" y="25.2" class="st5" width="12" height="12"/>
	</g>
</g>
</svg>
